<?xml version="1.0" encoding="UTF-8"?><svg id="uuid-4704cc4c-7ed7-4ee0-bebc-f0fe3059803d" xmlns="http://www.w3.org/2000/svg" viewBox="0 0 879.29 295.73"><defs><style>.uuid-fb9429ea-2a33-4a70-9c0c-9ff8e660c641{fill:none;stroke:#91e2a8;stroke-miterlimit:10;stroke-width:.75px;}.uuid-21931e9d-1dd5-41d8-8357-3b17f35a84b2{opacity:.51;}</style></defs><g id="uuid-8daba47d-421f-4868-852c-d1561a0f240e" class="uuid-21931e9d-1dd5-41d8-8357-3b17f35a84b2"><path class="uuid-fb9429ea-2a33-4a70-9c0c-9ff8e660c641" d="M.28,73.12C62.97,4.92,103.53-4.3,129.81,2.05c56.95,13.75,48.99,101.12,126.85,144.13,59.21,32.71,145.41,27.25,180.54-13.28,31.01-35.78,14.86-90.41,28.19-92.99,22.36-4.32,51.78,152.42,102.68,154.76,40.77,1.87,56.96-8.31,125.76-33.21,54.6-19.76,133.24,47.4,185.23,87.67"/><path class="uuid-fb9429ea-2a33-4a70-9c0c-9ff8e660c641" d="M.44,75.57C60.79,13.69,100.24,6.45,126.18,13.3c56.45,15,50.95,96.88,126.1,134.96,57.59,29.18,140.13,20.1,174.09-18.35,30.01-33.96,15.43-83.6,28.43-84.18,21.75-.97,49.99,150.39,99.51,151.47,29.93.65,47.54.93,80.13-10.15,14.32-4.87,30.32-12.45,50.57-21.96,30.4-14.28,67.55-4.26,106.5,15.35,30.8,15.51,61.77,38.05,86.65,56.11"/><path class="uuid-fb9429ea-2a33-4a70-9c0c-9ff8e660c641" d="M.61,78.01C58.62,22.46,96.96,17.2,122.55,24.54c55.94,16.24,52.97,92.63,125.35,125.79,56.02,25.66,134.85,12.96,167.64-23.41,29-32.13,15.97-76.8,28.67-75.37,21.11,2.38,48.27,150.33,96.33,148.18,31.22-1.39,49.96,5.21,84-5.49,15.44-4.85,31.63-13.93,51.63-25.53,30.21-17.51,66.39-13.71,107.45,2.05,32.81,12.59,66.71,34.79,93.63,53.21"/><path class="uuid-fb9429ea-2a33-4a70-9c0c-9ff8e660c641" d="M.78,80.46C56.44,31.24,93.7,27.9,118.93,35.79c55.47,17.36,55.07,88.36,124.6,116.61,54.51,22.15,129.56,5.82,161.2-28.48,28-30.31,16.5-70.02,28.91-66.56,20.45,5.69,46.62,148.76,93.15,144.9,32.48-2.7,52.39,9.51,87.88-.82,16.57-4.83,32.93-15.43,52.7-29.09,30.01-20.75,65.28-23.19,108.4-11.26,34.86,9.64,71.65,31.53,100.6,50.31"/><path class="uuid-fb9429ea-2a33-4a70-9c0c-9ff8e660c641" d="M.95,82.91c53.32-42.9,89.48-44.27,114.35-35.87,54.98,18.57,57.25,84.06,123.85,107.44,53.08,18.63,124.28-1.33,154.75-33.54,27-28.48,17.01-63.26,29.16-57.76,19.76,8.96,44.73,143.64,89.97,141.61,33.93-1.52,54.83,13.83,91.75,3.84,17.71-4.79,34.23-16.93,53.76-32.66,29.81-24.01,64.2-32.71,109.35-24.57,36.93,6.66,76.59,28.26,107.58,47.41"/><path class="uuid-fb9429ea-2a33-4a70-9c0c-9ff8e660c641" d="M1.11,85.36c50.98-36.57,86.03-35.98,110.56-27.07,54.49,19.79,59.52,79.71,123.1,98.27,51.72,15.1,119-8.47,148.3-38.61,25.99-26.66,17.54-56.52,29.4-48.95,19.09,12.19,43,141.19,86.79,138.32,35.29-2.31,57.28,18.17,95.63,8.5,18.84-4.75,35.53-18.44,54.82-36.22,29.6-27.28,63.15-42.28,110.3-37.88,39.03,3.64,81.53,25,114.55,44.51"/><path class="uuid-fb9429ea-2a33-4a70-9c0c-9ff8e660c641" d="M1.28,87.81c48.64-30.25,82.59-27.68,106.76-18.27,53.99,21.02,61.9,75.28,122.36,89.1,50.45,11.53,113.71-15.62,141.85-43.68,24.99-24.84,18.07-49.8,29.64-40.14,18.43,15.39,41.27,138.68,83.61,135.04,36.65-3.15,59.73,22.52,99.5,13.16,19.98-4.7,36.82-19.96,55.88-39.78,29.39-30.56,62.11-50.22,111.25-51.19,41.13-.81,86.48,21.74,121.53,41.61"/><path class="uuid-fb9429ea-2a33-4a70-9c0c-9ff8e660c641" d="M1.45,90.26c46.29-23.92,79.15-19.39,102.97-9.48,53.49,22.25,64.37,70.74,121.61,79.93,49.28,7.91,108.43-22.76,135.41-48.74,23.99-23.01,18.62-43.09,29.88-31.33,17.8,18.58,39.53,136.09,80.43,131.75,38.01-4.03,62.18,26.88,103.38,17.82,21.12-4.64,38.1-21.48,56.94-43.35,29.17-33.85,61.06-61.54,112.2-64.5,43.23-2.5,91.42,18.48,128.5,38.71"/><path class="uuid-fb9429ea-2a33-4a70-9c0c-9ff8e660c641" d="M1.62,92.71c43.95-17.6,75.7-11.08,99.18-.68,52.99,23.49,66.95,66.06,120.86,70.75,48.18,4.2,103.15-29.9,128.96-53.81,22.98-21.19,19.18-36.39,30.13-22.52,17.18,21.76,37.79,133.44,77.26,128.46,39.37-4.96,64.63,31.26,107.25,22.48,22.26-4.58,39.38-23.01,58-46.91,28.93-37.14,60-71.22,113.15-77.81,45.32-5.61,96.36,15.21,135.48,35.81"/><path class="uuid-fb9429ea-2a33-4a70-9c0c-9ff8e660c641" d="M1.79,95.16c41.61-11.27,72.25-2.78,95.38,8.12,52.49,24.74,70.33,70.15,120.11,61.58,46.48-8,97.87-37.05,122.51-58.87,21.98-19.36,19.75-29.69,30.37-13.72,16.59,24.94,36.05,130.74,74.08,125.18,40.72-5.95,67.09,35.64,111.13,27.15,23.4-4.52,40.66-24.53,59.07-50.48,28.69-40.43,58.93-80.93,114.1-91.12,47.4-8.75,101.3,11.95,142.45,32.92"/><path class="uuid-fb9429ea-2a33-4a70-9c0c-9ff8e660c641" d="M1.95,97.61c39.27-4.95,68.8,5.53,91.59,16.92,51.98,25.99,73.77,64.71,119.36,52.41s92.58-44.19,116.06-63.94c20.98-17.54,20.33-22.98,30.61-4.91,16,28.13,34.29,127.98,70.9,121.89,42.05-7,69.54,40.04,115,31.81,24.55-4.44,41.93-26.06,60.13-54.04,28.45-43.73,57.85-90.66,115.05-104.42,49.47-11.9,106.24,8.69,149.43,30.02"/><path class="uuid-fb9429ea-2a33-4a70-9c0c-9ff8e660c641" d="M2.12,100.06c36.93,1.38,65.35,13.84,87.79,25.72,51.47,27.25,74.97,50.84,118.61,43.24,45.2-7.87,87.3-51.34,109.62-69,19.97-15.72,20.92-16.27,30.85,3.9,15.43,31.32,32.53,125.19,67.72,118.6,43.38-8.12,72,44.44,118.88,36.47,25.69-4.37,43.19-27.59,61.19-57.6,28.2-47.02,56.75-100.4,116-117.73,51.53-15.07,111.18,5.43,156.4,27.12"/><path class="uuid-fb9429ea-2a33-4a70-9c0c-9ff8e660c641" d="M2.29,102.51c34.58,7.7,61.9,22.15,84,34.52,50.96,28.52,77.58,45.33,117.87,34.07,44.14-12.34,82.02-58.48,103.17-74.07,18.97-13.89,21.51-9.56,31.1,12.71,14.86,34.52,30.75,122.35,64.54,115.32,44.68-9.3,74.45,48.85,122.75,41.13,26.83-4.29,44.46-29.12,62.25-61.17,27.94-50.32,55.63-110.15,116.95-131.04,53.57-18.25,116.12,2.17,163.38,24.22"/><path class="uuid-fb9429ea-2a33-4a70-9c0c-9ff8e660c641" d="M2.46,104.96c32.24,14.03,58.45,30.47,80.2,43.32,50.44,29.79,80.05,39.64,117.12,24.9,42.91-17.07,76.73-65.62,96.72-79.13,17.97-12.07,22.1-2.84,31.34,21.51,14.3,37.72,28.95,119.49,61.36,112.03,45.95-10.57,76.91,53.26,126.63,45.79,27.97-4.2,45.65-30.68,63.31-64.73,27.57-53.67,54.5-119.91,117.9-144.35,55.6-21.43,121.06-1.1,170.35,21.32"/><path class="uuid-fb9429ea-2a33-4a70-9c0c-9ff8e660c641" d="M2.62,107.41c29.9,20.35,54.97,38.82,76.41,52.12,49.86,31.15,82.3,33.82,116.37,15.72,41.43-22.01,71.45-72.77,90.27-84.2,16.96-10.24,22.7,3.87,31.58,30.32,13.74,40.92,27.13,116.59,58.19,108.74,47.19-11.93,79.37,57.68,130.5,50.45,29.12-4.11,46.93-32.2,64.38-68.29,27.34-56.95,53.36-129.67,118.85-157.66,57.62-24.62,126-4.36,177.33,18.42"/><path class="uuid-fb9429ea-2a33-4a70-9c0c-9ff8e660c641" d="M2.79,109.85c27.56,26.68,51.52,47.13,72.62,60.92,49.36,32.39,84.3,27.97,115.62,6.55,39.64-27.11,66.17-79.91,83.83-89.26,15.96-8.42,23.33,10.58,31.82,39.13,13.24,44.12,25.29,113.67,55.01,105.46,48.4-13.38,81.83,62.16,134.38,55.12,30.26-3.99,48.21-33.71,65.44-71.86,27.1-60.22,52.15-139.56,119.8-170.97,59.58-27.92,130.94-7.62,184.3,15.52"/><path class="uuid-fb9429ea-2a33-4a70-9c0c-9ff8e660c641" d="M2.96,112.3c161.82,211.8,226.52-12,261.07-27.23,38.09-16.79,37.13,164.21,83.89,150.11,49.55-14.94,84.27,66.53,138.26,59.78,81-10.13,73.42-202.43,187.25-259.7,61.63-31.01,135.88-10.88,191.28,12.62"/></g></svg>