<?xml version="1.0" encoding="UTF-8"?><svg id="uuid-653146a4-99ff-4369-8b1f-497720fd3e7d" xmlns="http://www.w3.org/2000/svg" viewBox="0 0 1214.39 390.99"><defs><style>.uuid-34becc6c-8588-4bf7-b14a-1de25cd3a6e9{stroke:#767676;}.uuid-34becc6c-8588-4bf7-b14a-1de25cd3a6e9,.uuid-4ff861e7-f37e-4423-9091-e3ce9690bd83,.uuid-ee874de7-c9e6-4b74-be02-e3b4d33af601,.uuid-60998b34-cbc3-416c-b4f5-2e3f74e323b8,.uuid-374259b2-d964-4985-866f-ea7b68395b79,.uuid-80ae319c-be31-4d72-8b4e-4dfccb288b4a,.uuid-8f35c1a6-b2d3-4332-a558-5b3bb488cde9,.uuid-892d7cff-1074-4515-aebc-a77c85051d3e,.uuid-80442fa6-aefd-4968-8285-8bed681c37a9,.uuid-079aaf02-4c18-4d95-90c0-238114c14eec,.uuid-a33377f0-8d43-4a44-a324-2cc94848b58e,.uuid-d54cd200-4f63-427b-8545-ced2bfce585a,.uuid-c818d441-0e70-425a-97f2-ec9a038e2f1f,.uuid-9c2df9ce-80b7-4a32-9010-afaf87d62638,.uuid-546fd307-4357-49fe-a25f-9e60d3bea853,.uuid-7457f0e4-fb99-47ac-91af-076319c663d1,.uuid-58030947-6d4b-4cd5-9404-aea8647bd326{fill:none;stroke-miterlimit:10;stroke-width:.75px;}.uuid-4ff861e7-f37e-4423-9091-e3ce9690bd83{stroke:#727272;}.uuid-ee874de7-c9e6-4b74-be02-e3b4d33af601{stroke:#b5acb5;}.uuid-60998b34-cbc3-416c-b4f5-2e3f74e323b8{stroke:#8e8a8e;}.uuid-374259b2-d964-4985-866f-ea7b68395b79{stroke:#a39ca3;}.uuid-80ae319c-be31-4d72-8b4e-4dfccb288b4a{stroke:#7e7c7e;}.uuid-8f35c1a6-b2d3-4332-a558-5b3bb488cde9{stroke:#8a868a;}.uuid-892d7cff-1074-4515-aebc-a77c85051d3e{stroke:#928d92;}.uuid-80442fa6-aefd-4968-8285-8bed681c37a9{stroke:#868386;}.uuid-079aaf02-4c18-4d95-90c0-238114c14eec{stroke:#9f989e;}.uuid-a33377f0-8d43-4a44-a324-2cc94848b58e{stroke:#a8a0a7;}.uuid-d54cd200-4f63-427b-8545-ced2bfce585a{stroke:#828082;}.uuid-c818d441-0e70-425a-97f2-ec9a038e2f1f{stroke:#b1a8b1;}.uuid-9c2df9ce-80b7-4a32-9010-afaf87d62638{stroke:#969196;}.uuid-546fd307-4357-49fe-a25f-9e60d3bea853{stroke:#9a959a;}.uuid-7457f0e4-fb99-47ac-91af-076319c663d1{stroke:#7a797a;}.uuid-58030947-6d4b-4cd5-9404-aea8647bd326{stroke:#aca4ac;}</style></defs><path class="uuid-ee874de7-c9e6-4b74-be02-e3b4d33af601" d="M137.27,73.88C199.96,4.97,240.52-4.34,266.8,2.07c56.95,13.9,48.99,102.18,126.85,145.64,59.21,33.05,145.41,27.53,180.54-13.42,31.01-36.16,14.86-91.36,28.19-93.96,22.36-4.37,51.78,154.01,102.68,156.38,40.77,1.89,56.96-8.4,125.76-33.56,54.6-19.97,133.24,47.9,185.23,88.59"/><path class="uuid-c818d441-0e70-425a-97f2-ec9a038e2f1f" d="M137.43,76.35C197.94,14.04,237.52,6.79,263.55,13.69c56.71,15.12,51.23,97.46,126.5,135.35,44.31,22.3,103.43,21.48,143.67,3.5,12.26-5.48,23.13-12.24,31.17-20.83,30.57-32.67,15.81-83.94,29.38-84.94,23.11-1.7,53.03,150.65,102.39,151.82,31.86.75,49.94.89,86.92-11.99,12.86-4.48,26.16-11.2,42.16-19.41,28.18-14.32,62.25-5.39,100.6,13.76,31.61,15.79,63.36,39.39,88.82,58.08"/><path class="uuid-58030947-6d4b-4cd5-9404-aea8647bd326" d="M137.6,78.83c58.32-55.72,96.91-60.9,122.7-53.52,56.48,16.35,53.57,92.74,126.16,125.06,43.16,19.21,99.88,14.95,138.41-2.27,11.9-5.32,22.76-11.24,30.74-18.97,30.08-29.15,16.8-76.5,30.57-75.92,23.93,1.02,54.35,149.2,102.09,147.26,33.02-1.34,52.46,5.89,90.63-6.41,13.98-4.5,26.74-12.69,41.76-22.84,26.33-17.78,57.35-15.33,97.94.03,33.6,12.71,68.2,36.03,95.65,55.06"/><path class="uuid-a33377f0-8d43-4a44-a324-2cc94848b58e" d="M137.77,81.3c56.13-49.12,93.77-52.29,119.29-44.38,56.28,17.45,56.01,88.01,125.82,114.78,42.08,16.13,96.34,8.41,133.15-8.04,11.54-5.16,22.36-10.22,30.31-17.11,29.5-25.6,17.8-69.02,31.75-66.89,24.79,3.78,55.73,146.31,101.79,142.71,34.16-2.67,55,10.94,94.33-.82,15.1-4.52,27.34-14.15,41.37-26.27,24.5-21.17,52.47-25.29,95.29-13.7,35.6,9.63,73.03,32.67,102.48,52.04"/><path class="uuid-374259b2-d964-4985-866f-ea7b68395b79" d="M137.94,83.78c53.95-42.52,90.6-43.64,115.88-35.24,56.06,18.65,58.57,83.23,125.48,104.49,41.09,13.05,92.79,1.87,127.89-13.81,11.18-5,21.93-9.18,29.87-15.25,28.82-22.04,18.82-61.51,32.94-57.87,25.66,6.61,56.9,139.95,101.49,138.15,35.48-1.43,57.56,16.03,98.04,4.77,16.24-4.52,27.94-15.6,40.98-29.71,22.68-24.55,47.6-35.26,92.64-27.43,37.61,6.53,77.87,29.31,109.31,49.02"/><path class="uuid-079aaf02-4c18-4d95-90c0-238114c14eec" d="M138.1,86.25c51.76-35.92,87.44-34.99,112.46-26.09,55.83,19.85,61.27,78.38,125.14,94.2,40.19,9.96,89.24-4.66,122.64-19.58,10.83-4.84,21.46-8.13,29.44-13.39,28.01-18.49,19.83-53.97,34.13-48.85,26.53,9.49,58.21,136.2,101.19,133.6,36.71-2.23,60.13,21.15,101.75,10.35,17.37-4.5,28.55-17.04,40.59-33.14,20.87-27.91,42.74-45.24,89.98-41.16,39.62,3.42,82.7,25.95,116.14,45.99"/><path class="uuid-546fd307-4357-49fe-a25f-9e60d3bea853" d="M138.27,88.73c49.57-29.33,84.28-26.33,109.05-16.95,55.6,21.07,64.12,73.41,124.79,83.92,39.39,6.82,85.69-11.2,117.38-25.35,10.47-4.67,20.95-7.06,29.01-11.53,27.03-14.99,20.84-46.4,35.32-39.83,27.38,12.41,59.52,132.38,100.9,129.04,37.94-3.06,62.7,26.3,105.46,15.94,18.51-4.48,29.16-18.48,40.19-36.57,19.06-31.26,37.88-55.25,87.33-54.89,41.64.3,87.54,22.59,122.97,42.97"/><path class="uuid-9c2df9ce-80b7-4a32-9010-afaf87d62638" d="M138.44,91.2c47.39-22.73,81.11-17.67,105.64-7.8,55.37,22.29,67.11,68.27,124.45,73.63,38.69,3.62,82.15-17.74,112.12-31.12,10.11-4.51,20.38-6,28.58-9.67,25.88-11.59,21.83-38.81,36.51-30.81,28.21,15.38,60.83,128.49,100.6,124.49s65.28,31.47,109.17,21.53c19.65-4.45,29.78-19.91,39.8-40,17.27-34.61,33.03-65.26,84.68-68.62,43.66-2.84,92.37,19.23,129.8,39.95"/><path class="uuid-892d7cff-1074-4515-aebc-a77c85051d3e" d="M138.61,93.68c45.2-16.13,77.95-9.01,102.22,1.34,55.14,23.51,71.27,73.94,124.11,63.34,37.33-7.49,78.6-24.27,106.86-36.89,9.75-4.35,19.37-6.59,28.14-7.81,22.51-12.84,22.81-31.21,37.7-21.79,29.02,18.36,62.13,124.54,100.3,119.93,40.4-4.88,67.87,36.66,112.87,27.12,20.79-4.41,30.4-21.34,39.41-43.44,15.48-37.96,28.16-75.29,82.02-82.35,45.67-5.99,97.2,15.87,136.63,36.93"/><path class="uuid-60998b34-cbc3-416c-b4f5-2e3f74e323b8" d="M138.78,96.15c43.01-9.53,74.78-.35,98.81,10.48,54.91,24.74,75.53,68.13,123.77,53.06,35.94-11.23,75.05-30.81,101.6-42.66,9.39-4.19,18.86-5.77,27.71-5.95,21.45-9.93,23.77-23.6,38.88-12.76,29.8,21.37,63.43,120.53,100,115.37,41.63-5.87,70.45,41.86,116.58,32.7,21.94-4.36,31.02-22.78,39.01-46.87,13.7-41.31,23.29-85.33,79.37-96.08,47.68-9.14,102.04,12.52,143.46,33.91"/><path class="uuid-8f35c1a6-b2d3-4332-a558-5b3bb488cde9" d="M138.94,98.63c40.83-2.94,71.61,8.32,95.4,19.63,54.67,25.98,76.6,51.4,123.42,42.77,36.98-6.82,71.5-37.35,96.34-48.43,9.03-4.03,18.34-4.94,27.28-4.09,20.39-7.01,24.73-15.99,40.07-3.74,30.55,24.39,64.72,116.47,99.7,110.82,42.84-6.92,73.04,47.09,120.29,38.29,23.08-4.3,31.65-24.21,38.62-50.3,11.93-44.66,18.42-95.38,76.71-109.81,49.69-12.3,106.87,9.16,150.29,30.88"/><path class="uuid-80442fa6-aefd-4968-8285-8bed681c37a9" d="M139.11,101.1c38.64,3.66,68.44,16.99,91.98,28.77,54.43,27.23,79.74,45.23,123.08,32.48,36.39-10.7,67.96-43.88,91.08-54.2,8.67-3.87,17.83-4.11,26.84-2.23,19.32-4.1,25.68-8.37,41.26,5.28,31.29,27.41,66,112.37,99.41,106.26,44.04-8.05,75.63,52.32,124,43.88,24.23-4.23,32.28-25.65,38.23-53.73,10.16-48.02,13.54-105.43,74.06-123.54,51.69-15.47,111.71,5.8,157.12,27.86"/><path class="uuid-d54cd200-4f63-427b-8545-ced2bfce585a" d="M139.28,103.58c36.45,10.26,65.27,25.67,88.57,37.91,54.18,28.48,82.72,38.83,122.74,22.2,35.66-14.82,64.41-50.42,85.82-59.98,8.31-3.71,17.32-3.28,26.41-.37,18.26-1.18,26.61-.76,42.45,14.3,32.01,30.43,67.27,108.22,99.11,101.71,45.22-9.26,78.22,57.56,127.71,49.46,25.38-4.15,32.92-27.09,37.84-57.17,8.4-51.37,8.66-115.49,71.41-137.27,53.68-18.64,116.54,2.44,163.95,24.84"/><path class="uuid-80ae319c-be31-4d72-8b4e-4dfccb288b4a" d="M139.45,106.05c34.27,16.85,62.1,34.34,85.16,47.06,53.93,29.74,85.47,32.27,122.4,11.91,34.72-19.14,60.86-56.96,80.56-65.75,7.95-3.54,16.31-1.01,25.98,1.49,16.74,4.33,27.54,6.85,43.64,23.32,32.71,33.46,68.52,104.04,98.81,97.15,46.37-10.55,80.8,62.82,131.41,55.05,26.52-4.07,33.6-28.52,37.44-60.6,6.72-54.72,3.77-125.54,68.75-151,55.68-21.81,121.38-.92,170.78,21.82"/><path class="uuid-7457f0e4-fb99-47ac-91af-076319c663d1" d="M139.61,108.53c32.08,23.45,58.9,43.06,81.74,56.2,53.63,31.09,87.96,25.64,122.06,1.62s57.31-63.49,75.3-71.52c7.59-3.38,15.81-.61,25.54,3.35,15.55,6.33,28.46,14.47,44.83,32.34,33.4,36.49,69.75,99.83,98.51,92.59,47.48-11.95,83.39,68.08,135.12,60.64,27.67-3.98,34.23-29.96,37.05-64.03,4.94-58.09-1.16-135.69,66.1-164.73,57.63-25.06,126.21-4.28,177.61,18.8"/><path class="uuid-34becc6c-8588-4bf7-b14a-1de25cd3a6e9" d="M139.78,111c29.89,30.05,55.74,51.72,78.33,65.35,53.39,32.32,90.16,19.05,121.71-8.66s53.77-70.03,70.04-77.29c7.23-3.22,15.47-.29,25.11,5.21,14.65,8.35,29.38,22.08,46.02,41.37,34.08,39.51,70.95,95.6,98.21,88.04,48.54-13.46,85.97,73.35,138.83,66.22,28.82-3.89,34.85-31.4,36.66-67.46,3.15-61.45-6.05-145.71,63.45-178.46,59.63-28.2,131.05-7.64,184.44,15.77"/><path class="uuid-4ff861e7-f37e-4423-9091-e3ce9690bd83" d="M139.95,113.48c161.82,214.02,226.52-12.12,261.07-27.52,38.09-16.97,123.04,155.19,169.8,140.94,49.55-15.1,88.56,78.63,142.54,71.81,81-10.24-16.76-205.21,97.06-263.09,61.63-31.33,135.88-11,191.28,12.75"/></svg>