<?xml version="1.0" encoding="UTF-8"?><svg id="uuid-52b9a677-aad6-4941-b792-7c31afb5cd19" xmlns="http://www.w3.org/2000/svg" viewBox="0 0 1214.39 390.99"><defs><style>.uuid-9abbc31b-9f6b-4ac6-8289-f6a047d8a7ff{stroke:#cb98c4;}.uuid-9abbc31b-9f6b-4ac6-8289-f6a047d8a7ff,.uuid-93639fc6-c0c3-4306-847b-a1b178155ca2,.uuid-a5d3da70-b2cf-4c36-9b6a-d522a6c57181,.uuid-18c43b7b-67e3-44e9-90cd-f3114ec961f7,.uuid-685f68d3-3d27-448c-ba1b-d10c22d86162,.uuid-c467d664-56ea-4ac2-a269-02ed1beb114f,.uuid-2e5374e0-5bf7-4815-9392-b7df89453ba0,.uuid-9f93b147-1b47-4e7b-b9d0-6b9497b0be23,.uuid-a52b16d5-2c1b-47b0-981e-04c93bfe28d0,.uuid-fb16cf28-d3dc-415b-b6ba-6b443355ada9,.uuid-34ec5345-18d6-4b2d-a07b-3dc5fb7feb5f,.uuid-6dd0c76a-fe2d-4085-91b4-ef8b5b7c4a2d,.uuid-c6146de5-7f0a-4c40-b360-60e1a71d1472,.uuid-2a138cf6-0277-4c88-9a8c-e54e54f87a1f,.uuid-05375e49-7e76-4028-8d33-d769cfc9364f,.uuid-115be953-8d9c-4515-a308-e5dadb78b43f,.uuid-c0f8856e-4c64-4d87-95f4-0127fbfd06f8{fill:none;stroke-miterlimit:10;stroke-width:.75px;}.uuid-93639fc6-c0c3-4306-847b-a1b178155ca2{stroke:#c193bc;}.uuid-a5d3da70-b2cf-4c36-9b6a-d522a6c57181{stroke:#ba90b7;}.uuid-18c43b7b-67e3-44e9-90cd-f3114ec961f7{stroke:#c997c2;}.uuid-685f68d3-3d27-448c-ba1b-d10c22d86162{stroke:#be92ba;}.uuid-c467d664-56ea-4ac2-a269-02ed1beb114f{stroke:#b78fb5;}.uuid-2e5374e0-5bf7-4815-9392-b7df89453ba0{stroke:#cd98c5;}.uuid-9f93b147-1b47-4e7b-b9d0-6b9497b0be23{stroke:#ca97c3;}.uuid-a52b16d5-2c1b-47b0-981e-04c93bfe28d0{stroke:#c696c0;}.uuid-fb16cf28-d3dc-415b-b6ba-6b443355ada9{stroke:#b990b6;}.uuid-34ec5345-18d6-4b2d-a07b-3dc5fb7feb5f{stroke:#bc91b8;}.uuid-6dd0c76a-fe2d-4085-91b4-ef8b5b7c4a2d{stroke:#c595bf;}.uuid-c6146de5-7f0a-4c40-b360-60e1a71d1472{stroke:#c896c1;}.uuid-2a138cf6-0277-4c88-9a8c-e54e54f87a1f{stroke:#c294bd;}.uuid-05375e49-7e76-4028-8d33-d769cfc9364f{stroke:#bd92b9;}.uuid-115be953-8d9c-4515-a308-e5dadb78b43f{stroke:#c093bb;}.uuid-c0f8856e-4c64-4d87-95f4-0127fbfd06f8{stroke:#c494be;}</style></defs><path class="uuid-c467d664-56ea-4ac2-a269-02ed1beb114f" d="M137.27,73.88C199.96,4.97,240.52-4.34,266.8,2.07c56.95,13.9,48.99,102.18,126.85,145.64,59.21,33.05,145.41,27.53,180.54-13.42,31.01-36.16,14.86-91.36,28.19-93.96,22.36-4.37,51.78,154.01,102.68,156.38,40.77,1.89,56.96-8.4,125.76-33.56,54.6-19.97,133.24,47.9,185.23,88.59"/><path class="uuid-fb16cf28-d3dc-415b-b6ba-6b443355ada9" d="M137.43,76.35C197.78,13.83,237.23,6.51,263.16,13.43c56.46,15.17,50.97,97.88,126.13,136.36,57.58,29.48,140.11,20.33,174.07-18.52,30.01-34.31,15.43-84.47,28.43-85.05,21.75-.97,49.99,151.96,99.5,153.05,29.92.66,47.53.95,80.09-10.24,14.32-4.92,30.33-12.58,50.6-22.2,30.52-14.47,67.82-4.18,106.91,15.77,30.65,15.64,61.48,38.27,86.25,56.44"/><path class="uuid-a5d3da70-b2cf-4c36-9b6a-d522a6c57181" d="M137.6,78.83c58-56.14,96.34-61.46,121.92-54.04,55.97,16.44,53.02,93.58,125.41,127.08,55.99,25.91,134.81,13.13,167.6-23.62,29.01-32.47,15.97-77.59,28.68-76.15,21.11,2.4,48.27,151.89,96.32,149.72,31.21-1.41,49.95,5.27,83.97-5.53,15.44-4.9,31.63-14.08,51.66-25.79,30.32-17.73,66.63-13.73,107.84,2.29,32.66,12.7,66.44,34.99,93.25,53.52"/><path class="uuid-34ec5345-18d6-4b2d-a07b-3dc5fb7feb5f" d="M137.77,81.3c55.65-49.75,92.9-53.14,118.12-45.16,55.52,17.57,55.14,89.26,124.69,117.8,54.48,22.35,129.51,5.92,161.14-28.73,28-30.63,16.5-70.73,28.92-67.24,20.44,5.75,46.62,150.3,93.14,146.39,32.47-2.73,52.38,9.61,87.85-.82,16.57-4.88,32.93-15.58,52.71-29.38,30.12-21.01,65.5-23.31,108.77-11.19,34.72,9.73,71.4,31.7,100.25,50.61"/><path class="uuid-05375e49-7e76-4028-8d33-d769cfc9364f" d="M137.94,83.78c53.31-43.36,89.45-44.77,114.32-36.27,55.05,18.81,57.34,84.92,123.97,108.52,53.03,18.79,124.21-1.28,154.67-33.83,27-28.79,17.02-63.9,29.16-58.33,19.75,9.05,44.73,145.11,89.96,143.06,33.93-1.54,54.82,13.98,91.72,3.89,17.7-4.84,34.23-17.09,53.77-32.96,29.91-24.3,64.41-32.94,109.69-24.66,36.81,6.73,76.36,28.42,107.26,47.7"/><path class="uuid-685f68d3-3d27-448c-ba1b-d10c22d86162" d="M138.1,86.25c50.96-36.98,86-36.4,110.51-27.39,54.57,20.06,59.64,80.51,123.25,99.24,51.66,15.21,118.91-8.48,148.2-38.93,26-26.94,17.54-57.09,29.41-49.42,19.08,12.32,43,142.64,86.78,139.73,35.29-2.34,57.27,18.36,95.6,8.6,18.83-4.8,35.52-18.61,54.82-36.55,29.7-27.6,63.35-42.62,110.62-38.14,38.92,3.69,81.32,25.13,114.26,44.79"/><path class="uuid-115be953-8d9c-4515-a308-e5dadb78b43f" d="M138.27,88.73c48.62-30.59,82.55-28.02,106.71-18.5,54.09,21.31,62.04,76.04,122.53,89.96,50.38,11.6,113.61-15.68,141.73-44.03,25-25.1,18.07-50.3,29.65-40.52,18.42,15.55,41.27,140.08,83.6,136.41,36.65-3.18,59.72,22.76,99.48,13.31,19.97-4.75,36.81-20.14,55.88-40.14,29.47-30.92,62.3-50.54,111.55-51.62,41.03-.9,86.28,21.85,121.26,41.88"/><path class="uuid-93639fc6-c0c3-4306-847b-a1b178155ca2" d="M138.44,91.2c46.27-24.21,79.1-19.64,102.91-9.62,53.61,22.57,64.54,71.45,121.81,80.69,49.19,7.93,108.31-22.89,135.27-49.13,24-23.26,18.62-43.52,29.9-31.61,17.78,18.77,39.53,137.46,80.42,133.08,38.01-4.07,62.17,27.17,103.36,18.02,21.11-4.69,38.09-21.67,56.93-43.73,29.24-34.23,61.23-62.12,112.48-65.09,43.15-2.51,91.24,18.56,128.26,38.96"/><path class="uuid-2a138cf6-0277-4c88-9a8c-e54e54f87a1f" d="M138.61,93.68c43.92-17.82,75.65-11.26,99.1-.73,53.13,23.84,67.14,66.72,121.09,71.41,48.09,4.18,103.01-30.09,128.8-54.23,22.99-21.41,19.18-36.74,30.14-22.7,17.17,21.99,37.79,134.77,77.24,129.75,39.37-5.02,64.63,31.59,107.23,22.73,22.24-4.63,39.36-23.21,57.99-47.32,29.01-37.56,60.16-71.92,113.4-78.57,45.25-5.65,96.2,15.28,135.26,36.05"/><path class="uuid-c0f8856e-4c64-4d87-95f4-0127fbfd06f8" d="M138.78,96.15c41.58-11.43,72.2-2.87,95.3,8.15,52.64,25.12,70.57,70.77,120.37,62.13,46.37-8.05,97.71-37.29,122.33-59.33,21.99-19.57,19.75-29.96,30.39-13.79,16.57,25.2,36.05,132.03,74.06,126.42,40.72-6.01,67.08,36.02,111.11,27.44,23.38-4.56,40.63-24.75,59.04-50.91,28.76-40.89,59.08-81.75,114.33-92.04,47.35-8.82,101.16,11.99,142.26,33.14"/><path class="uuid-6dd0c76a-fe2d-4085-91b4-ef8b5b7c4a2d" d="M138.94,98.63c39.23-5.05,68.74,5.52,91.5,17.04,52.15,26.4,74.05,65.28,119.65,52.85,44.61-12.16,92.41-44.49,115.87-64.43,20.99-17.73,20.34-23.18,30.63-4.89,15.99,28.42,34.29,129.24,70.88,123.09,42.06-7.07,69.54,40.46,114.99,32.15,24.52-4.49,41.9-26.28,60.1-54.5,28.51-44.21,57.98-91.6,115.26-105.52,49.43-12.01,106.12,8.71,149.27,30.23"/><path class="uuid-a52b16d5-2c1b-47b0-981e-04c93bfe28d0" d="M139.11,101.1c36.89,1.34,65.28,13.91,87.69,25.92,51.66,27.69,75.26,51.36,118.93,43.57s87.11-51.7,109.4-69.53c19.99-15.89,20.93-16.4,30.87,4.02,15.41,31.64,32.53,126.41,67.7,119.76,43.38-8.2,71.99,44.91,118.87,36.85,25.66-4.41,43.16-27.82,61.15-58.09,28.25-47.54,56.86-101.47,116.19-119,51.49-15.21,111.08,5.43,156.27,27.31"/><path class="uuid-c6146de5-7f0a-4c40-b360-60e1a71d1472" d="M139.28,103.58c34.54,7.73,61.82,22.3,83.89,34.81,51.16,28.99,77.89,45.8,118.21,34.29,44.01-12.56,81.81-58.9,102.93-74.63,18.99-14.04,21.52-9.61,31.12,12.93,14.85,34.87,30.74,123.54,64.52,116.44,44.68-9.4,74.45,49.36,122.75,41.56,26.8-4.33,44.42-29.36,62.21-61.68,27.99-50.87,55.73-111.35,117.11-132.47,53.54-18.43,116.04,2.14,163.27,24.4"/><path class="uuid-18c43b7b-67e3-44e9-90cd-f3114ec961f7" d="M139.45,106.05c32.19,14.11,58.36,30.7,80.09,43.69,50.65,30.29,80.38,40.05,117.49,25.01,42.77-17.33,76.51-66.1,96.46-79.73,17.98-12.2,22.12-2.82,31.36,21.83,14.29,38.1,28.95,120.64,61.34,113.11,45.96-10.68,76.91,53.82,126.62,46.27,27.94-4.24,45.61-30.93,63.26-65.27,27.62-54.25,54.58-121.23,118.04-145.95,55.58-21.65,121-1.14,170.27,21.49"/><path class="uuid-9f93b147-1b47-4e7b-b9d0-6b9497b0be23" d="M139.61,108.53c29.85,20.5,54.87,39.14,76.28,52.58,50.08,31.69,82.66,34.18,116.77,15.73,41.27-22.32,71.21-73.3,90-84.84,16.98-10.36,22.72,3.97,31.61,30.74,13.73,41.34,27.13,117.7,58.16,109.78,47.2-12.06,79.36,58.28,130.5,50.98,29.08-4.15,46.89-32.45,64.32-68.86,27.38-57.56,53.42-131.12,118.97-159.43,57.61-24.87,125.96-4.43,177.27,18.58"/><path class="uuid-9abbc31b-9f6b-4ac6-8289-f6a047d8a7ff" d="M139.78,111c27.5,26.88,51.42,47.52,72.48,61.46,49.59,32.96,84.68,28.28,116.05,6.45,39.47-27.46,65.91-80.51,83.53-89.94,15.98-8.51,23.35,10.75,31.85,39.65,13.23,44.57,25.29,114.75,54.98,106.45,48.4-13.52,81.83,62.81,134.38,55.69,30.22-4.02,48.16-33.98,65.37-72.45,27.14-60.87,52.18-141.14,119.89-172.9,59.57-28.21,130.92-7.71,184.27,15.66"/><path class="uuid-2e5374e0-5bf7-4815-9392-b7df89453ba0" d="M139.95,113.48c161.82,214.02,226.52-12.12,261.07-27.52,38.09-16.97,37.13,165.93,83.89,151.68,49.55-15.1,84.27,67.22,138.26,60.4,81-10.24,73.42-204.54,187.25-262.42,61.63-31.33,135.88-11,191.28,12.75"/></svg>