<?xml version="1.0" encoding="UTF-8"?><svg id="uuid-9bfdf820-a221-444f-bd62-964718a97855" xmlns="http://www.w3.org/2000/svg" viewBox="0 0 1214.39 323.21"><defs><style>.uuid-a3069511-8593-47fa-936f-52c8ec5475bc{stroke:#c896c1;stroke-width:.8px;}.uuid-a3069511-8593-47fa-936f-52c8ec5475bc,.uuid-8e856434-4ed6-4d39-9289-c03a9a79e6a6,.uuid-1e516578-8e87-46e7-882c-75d6a3ad1517,.uuid-04c22366-3567-41f9-93b1-3fdd505377eb,.uuid-aff8bdf2-9011-4682-ba3b-295cc01c2d60,.uuid-06bcf584-48e9-4c46-847b-8cc506496647,.uuid-36cc43ee-8414-44ad-9fa9-50eed4b33cfd,.uuid-f28d5fc8-c0d2-432f-8561-e6ee3dfa702f,.uuid-11c3937b-4feb-41e1-a3e4-e3e7619cc5b3,.uuid-caa45942-e37d-42f5-a0ae-5010a9e8c5f6,.uuid-834102fc-0b02-4d63-b9c0-ad2b569036c0,.uuid-3110357a-b574-4163-af4b-a74bf7aa003e,.uuid-f8351fc2-372e-40c1-abbc-c3f0515e3c10,.uuid-289d6ffa-9f78-41f4-81e1-278cfcd65d6f,.uuid-20bedda2-100e-48c2-ae67-0547b398ffb4,.uuid-49cd7d7b-0b68-41da-950a-c408d1ac6c7a,.uuid-d64bfb07-d0a7-40f9-a1fa-1cd2ede87a58,.uuid-9f3d144f-7fa8-4450-aff6-2919ddd56239,.uuid-a5fa5974-ec45-4386-98f6-de38903d1049,.uuid-d420575c-07e7-4e83-b696-0ba7ce38497f,.uuid-d9f63d83-8025-4fd3-b891-eca76ba1b241,.uuid-ee4bce60-9a9d-4a9c-87ed-061c21b34ebc{fill:none;stroke-miterlimit:10;}.uuid-8e856434-4ed6-4d39-9289-c03a9a79e6a6{stroke:#b890b6;stroke-width:.75px;}.uuid-1e516578-8e87-46e7-882c-75d6a3ad1517{stroke:#ca97c3;stroke-width:.8px;}.uuid-04c22366-3567-41f9-93b1-3fdd505377eb{stroke:#bb90b7;stroke-width:.76px;}.uuid-aff8bdf2-9011-4682-ba3b-295cc01c2d60{stroke:#cb98c3;stroke-width:.8px;}.uuid-06bcf584-48e9-4c46-847b-8cc506496647{stroke:#bd91b9;stroke-width:.76px;}.uuid-36cc43ee-8414-44ad-9fa9-50eed4b33cfd{stroke:#cd98c5;stroke-width:.81px;}.uuid-f28d5fc8-c0d2-432f-8561-e6ee3dfa702f{stroke:#c494be;stroke-width:.78px;}.uuid-11c3937b-4feb-41e1-a3e4-e3e7619cc5b3{stroke:#c997c2;stroke-width:.8px;}.uuid-caa45942-e37d-42f5-a0ae-5010a9e8c5f6{stroke:#c193bc;stroke-width:.78px;}.uuid-834102fc-0b02-4d63-b9c0-ad2b569036c0{stroke:#b78fb5;stroke-width:.75px;}.uuid-3110357a-b574-4163-af4b-a74bf7aa003e{stroke:#c796c0;stroke-width:.79px;}.uuid-f8351fc2-372e-40c1-abbc-c3f0515e3c10{stroke:#b990b7;stroke-width:.76px;}.uuid-289d6ffa-9f78-41f4-81e1-278cfcd65d6f{stroke:#cc98c4;stroke-width:.81px;}.uuid-20bedda2-100e-48c2-ae67-0547b398ffb4{stroke:#c595bf;stroke-width:.79px;}.uuid-49cd7d7b-0b68-41da-950a-c408d1ac6c7a{stroke:#c394bd;stroke-width:.78px;}.uuid-d64bfb07-d0a7-40f9-a1fa-1cd2ede87a58{stroke:#be92ba;stroke-width:.77px;}.uuid-9f3d144f-7fa8-4450-aff6-2919ddd56239{stroke:#bc91b8;stroke-width:.76px;}.uuid-a5fa5974-ec45-4386-98f6-de38903d1049{stroke:#bf92ba;stroke-width:.77px;}.uuid-d420575c-07e7-4e83-b696-0ba7ce38497f{stroke:#c093bb;stroke-width:.77px;}.uuid-d9f63d83-8025-4fd3-b891-eca76ba1b241{stroke:#c294bd;stroke-width:.78px;}.uuid-ee4bce60-9a9d-4a9c-87ed-061c21b34ebc{stroke:#c695c0;stroke-width:.79px;}</style></defs><path class="uuid-834102fc-0b02-4d63-b9c0-ad2b569036c0" d="M107.58,113.2C169.75,22.5,214.21,6.23,236.44,11.86c42.01,10.64,11.06,140.45,54.1,148.03,42.71,7.52,142.51-88.81,203.62-84.87,28.11,1.81-4.06,71.07,25.62,80.07,83.72,25.37,75.14-121.3,135.2-94.63,36.35,16.14,13.75,228.61,82.81,252.06,153.92,52.28,140.49-104.51,97.99-242.28-34.77-112.73,138.09-43.36,152.35-24.83"/><path class="uuid-8e856434-4ed6-4d39-9289-c03a9a79e6a6" d="M998.88,52.06c-17.74-21.23-188.27-88.25-156.02,20.58,39.68,133.88,50.68,286.04-100.38,234.29-68.4-23.49-48.39-233.52-86.86-249.33-59.46-24.43-51.38,122.86-133.81,101.66-33.61-8.64-1.42-79.46-32.39-80.67-62.6-2.44-156.37,93.6-199.75,86.47-43.12-7.19-17-135.87-61.58-146.83-22.37-5.5-65.76,10.01-125.64,96.46"/><path class="uuid-f8351fc2-372e-40c1-abbc-c3f0515e3c10" d="M1009.64,58.71c-21.22-23.94-189.43-88.6-159.68,16.33,36.85,130,45.42,277.51-102.78,226.3-67.74-23.52-50.27-231.14-90.9-246.59-58.75-22.34-51.58,126.43-132.42,108.7-37.65-8.26-5.33-80.7-39.16-81.26-64.07-1.08-151.85,94.91-195.88,88.06-43.21-6.71-21.91-134.35-69.05-145.62-22.5-5.38-64.82,9.38-122.42,91.58"/><path class="uuid-04c22366-3567-41f9-93b1-3fdd505377eb" d="M1020.4,65.35c-24.7-26.65-190.6-88.93-163.35,12.09,34.02,126.13,40.16,268.98-105.18,218.31-67.09-23.55-52.1-228.79-94.95-243.86-57.97-20.38-51.99,130.56-131.03,115.73-41.77-7.84-9.23-81.97-45.93-81.86-65.53.19-147.31,96.16-192.02,89.66-43.28-6.29-26.82-132.84-76.53-144.41-22.63-5.27-63.89,8.74-119.2,86.71"/><path class="uuid-9f3d144f-7fa8-4450-aff6-2919ddd56239" d="M1031.17,72c-28.18-29.36-191.78-89.26-167.02,7.84,31.18,122.27,34.91,260.45-107.57,210.32-66.43-23.58-53.88-226.47-99-241.13-57.11-18.55-52.54,135.12-129.64,122.77-45.95-7.36-13.12-83.27-52.7-82.46-66.99,1.38-142.78,97.4-188.15,91.26-43.36-5.87-31.72-131.35-84.01-143.2-22.76-5.16-62.96,8.11-115.98,81.83"/><path class="uuid-06bcf584-48e9-4c46-847b-8cc506496647" d="M1041.93,78.65c-31.66-32.06-192.97-89.57-170.69,3.59,28.33,118.43,29.65,251.92-109.97,202.33-65.78-23.61-55.64-224.19-103.04-238.39-56.19-16.84-53.17,140-128.25,129.8-50.18-6.82-17.01-84.61-59.47-83.06-68.44,2.5-138.24,98.64-184.28,92.86-43.44-5.46-36.62-129.86-91.48-142-22.89-5.06-62.02,7.48-112.77,76.95"/><path class="uuid-d64bfb07-d0a7-40f9-a1fa-1cd2ede87a58" d="M1052.69,85.29c-35.13-34.77-194.18-89.87-174.35-.66,25.47,114.61,24.39,243.39-112.37,194.34-65.12-23.64-57.36-221.95-107.09-235.66-55.23-15.23-53.87,145.15-126.87,136.84-54.44-6.2-20.91-85.97-66.24-83.65-69.89,3.57-133.71,99.88-180.41,94.45-43.51-5.05-41.52-128.39-98.96-140.79-23.01-4.97-61.09,6.85-109.55,72.07"/><path class="uuid-a5fa5974-ec45-4386-98f6-de38903d1049" d="M1063.45,91.94c-38.61-37.48-195.41-90.16-178.02-4.91,22.6,110.8,19.03,235.15-114.77,186.35-64.52-23.53-59.06-219.76-111.14-232.92-54.23-13.71-54.6,150.5-125.48,143.87-58.73-5.49-24.8-87.36-73.01-84.25-71.34,4.59-129.17,101.11-176.55,96.05-43.59-4.65-46.42-126.92-106.44-139.58-23.14-4.88-60.15,6.21-106.33,67.19"/><path class="uuid-d420575c-07e7-4e83-b696-0ba7ce38497f" d="M1074.21,98.58c-42.09-40.18-196.66-90.44-181.69-9.16,19.71,107.01,13.76,226.65-117.16,178.36-63.87-23.55-60.73-217.62-115.18-230.19s-55.36,156.03-124.09,150.91c-63.04-4.7-28.69-88.77-79.78-84.85-72.8,5.59-124.63,102.34-172.68,97.65-43.66-4.26-51.31-125.47-113.91-138.37-23.26-4.8-59.22,5.58-103.11,62.31"/><path class="uuid-caa45942-e37d-42f5-a0ae-5010a9e8c5f6" d="M1084.98,105.23c-45.57-42.89-197.93-90.7-185.35-13.41,16.8,103.24,8.5,218.13-119.56,170.37-63.21-23.57-62.38-215.55-119.23-227.45-52.15-10.91-56.14,161.69-122.7,157.94-67.36-3.79-32.59-90.21-86.55-85.45-74.25,6.55-120.09,103.56-168.81,99.25-43.73-3.87-56.2-124.02-121.39-137.17-23.39-4.72-58.29,4.95-99.89,57.43"/><path class="uuid-d9f63d83-8025-4fd3-b891-eca76ba1b241" d="M1095.74,111.88c-49.05-45.6-199.23-90.94-189.02-17.66,13.86,99.49,3.24,209.61-121.96,162.38-62.56-23.6-64.02-213.55-123.27-224.72-51.08-9.62-56.92,167.47-121.31,164.98-71.68-2.77-36.49-91.66-93.32-86.04-75.72,7.49-115.55,104.77-164.95,100.85-43.8-3.48-61.09-122.58-128.87-135.96-23.51-4.64-57.35,4.31-96.67,52.55"/><path class="uuid-49cd7d7b-0b68-41da-950a-c408d1ac6c7a" d="M1106.5,118.52c-52.53-48.3-200.56-91.17-192.69-21.91,10.88,95.77-2.02,201.08-124.35,154.39-61.91-23.63-65.64-211.62-127.32-221.98-50-8.4-57.7,173.34-119.92,172.01-76.01-1.62-40.39-93.14-100.09-86.64-77.18,8.4-111.01,105.98-161.08,102.44-43.87-3.1-65.98-121.16-136.34-134.75-23.63-4.57-56.42,3.68-93.46,47.67"/><path class="uuid-f28d5fc8-c0d2-432f-8561-e6ee3dfa702f" d="M1117.26,125.17c-56.01-51.01-201.93-91.38-196.36-26.16,7.87,92.07-7.28,192.55-126.75,146.4-61.25-23.66-67.25-209.77-131.37-219.25-48.91-7.23-58.47,179.29-118.54,179.05-80.33-.32-44.3-94.64-106.86-87.24-78.65,9.3-106.47,107.19-157.21,104.04-43.94-2.72-70.87-119.74-143.82-133.55-23.75-4.49-55.48,3.05-90.24,42.8"/><path class="uuid-20bedda2-100e-48c2-ae67-0547b398ffb4" d="M1128.03,131.81c-59.48-53.72-203.35-91.58-200.02-30.4,4.8,88.38-12.53,184.01-129.15,138.41-60.6-23.69-68.86-208.01-135.41-216.51-47.82-6.11-59.23,185.3-117.15,186.08-84.63,1.14-48.21-96.15-113.63-87.84-80.13,10.18-101.93,108.38-153.35,105.64-44.02-2.35-75.75-118.34-151.3-132.34-23.87-4.42-54.55,2.42-87.02,37.92"/><path class="uuid-ee4bce60-9a9d-4a9c-87ed-061c21b34ebc" d="M1138.79,138.46c-62.96-56.42-204.82-91.77-203.69-34.65,1.67,84.72-17.79,175.46-131.54,130.43-59.94-23.73-70.46-206.34-139.46-213.78-46.74-5.04-59.98,191.38-115.76,193.12-88.93,2.77-52.12-97.68-120.4-88.43-81.61,11.05-97.39,109.58-149.48,107.24-44.09-1.98-80.63-116.94-158.77-131.13-23.99-4.36-53.62,1.78-83.8,33.04"/><path class="uuid-3110357a-b574-4163-af4b-a74bf7aa003e" d="M1149.55,145.11c-66.44-59.13-206.35-91.95-207.36-38.9-1.54,81.07-23.03,166.91-133.94,122.44-59.28-23.77-72.06-204.77-143.51-211.04-45.66-4-60.71,197.5-114.37,200.15-93.19,4.6-56.04-99.23-127.17-89.03-83.09,11.91-92.85,110.77-145.61,108.84-44.16-1.62-85.51-115.55-166.25-129.92-24.12-4.29-52.68,1.15-80.58,28.16"/><path class="uuid-a3069511-8593-47fa-936f-52c8ec5475bc" d="M1160.31,151.75c-69.92-61.84-207.95-92.12-211.03-43.15-4.86,77.42-28.28,158.35-136.34,114.45-58.62-23.82-73.67-203.31-147.55-208.31-44.58-3.01-61.41,203.66-112.98,207.19-97.42,6.65-59.96-100.79-133.94-89.63-84.58,12.76-88.31,111.95-141.74,110.43-44.23-1.26-90.4-114.17-173.72-128.72-24.24-4.23-51.75.52-77.36,23.28"/><path class="uuid-11c3937b-4feb-41e1-a3e4-e3e7619cc5b3" d="M1171.07,158.4c-73.4-64.54-209.63-92.31-214.69-47.4-8.31,73.76-33.52,149.78-138.73,106.46-57.95-23.87-75.29-201.97-151.6-205.57-43.53-2.05-62.08,209.86-111.59,214.22-101.6,8.95-63.89-102.36-140.71-90.23-86.07,13.6-83.77,113.13-137.88,112.03-44.3-.9-95.27-112.8-181.2-127.51-24.36-4.17-50.81-.12-74.14,18.4"/><path class="uuid-1e516578-8e87-46e7-882c-75d6a3ad1517" d="M1181.84,165.04c-76.88-67.25-211.4-92.51-218.36-51.65-11.93,70.06-38.69,141.03-141.13,98.47-57.25-24.02-76.92-200.75-155.65-202.84-42.48-1.12-62.71,216.09-110.21,221.26-105.73,11.51-67.82-103.95-147.48-90.82-87.56,14.43-79.23,114.3-134.01,113.63-44.37-.54-100.15-111.44-188.68-126.3-24.48-4.11-49.88-.75-70.93,13.52"/><path class="uuid-aff8bdf2-9011-4682-ba3b-295cc01c2d60" d="M1192.6,171.69c-80.36-69.96-213.27-92.77-222.03-55.9-15.74,66.28-43.95,132.5-143.53,90.48-56.59-24.05-78.57-199.66-159.69-200.1-41.46-.22-63.31,222.34-108.82,228.29-109.78,14.36-71.75-105.55-154.25-91.42-89.06,15.25-74.69,115.37-130.14,115.23-44.45-.27-105-110.27-196.15-125.09-24.59-4.1-48.95-1.38-67.71,8.64"/><path class="uuid-289d6ffa-9f78-41f4-81e1-278cfcd65d6f" d="M1203.36,178.33c-83.83-72.67-215.23-93.1-225.69-60.15-19.79,62.35-49.2,123.97-145.93,82.49C775.81,176.59,751.49,1.96,668,3.31c-40.46.65-63.86,228.6-107.43,235.33-113.74,17.55-75.72-107.33-161.02-92.02-90.6,15.89-70.16,116.58-126.28,116.83-44.52.11-109.89-108.84-203.63-123.89-24.71-4.02-48.01-2.01-64.49,3.76"/><path class="uuid-36cc43ee-8414-44ad-9fa9-50eed4b33cfd" d="M1214.12,184.98c-87.31-75.37-217.28-93.56-229.36-64.4-24.11,58.19-54.46,115.44-148.32,74.5C781.16,170.97,754.47-2.82,668.65.45c-39.48,1.51-64.35,234.88-106.04,242.36-117.58,21.09-79.63-108.78-167.79-92.62-92.07,16.88-65.62,117.79-122.41,118.42-44.59.5-114.78-107.41-211.11-122.68-24.84-3.94-47.08-2.65-61.27-1.12"/></svg>